<svg xmlns="http://www.w3.org/2000/svg" viewBox="0 0 512 512">
  <defs>
    <linearGradient id="favGrad" x1="0%" y1="0%" x2="100%" y2="100%">
      <stop offset="0%" stop-color="#1a1935" />
      <stop offset="100%" stop-color="#070614" />
    </linearGradient>
  </defs>
  <!-- Squircle Background -->
  <rect width="512" height="512" rx="112" fill="url(#favGrad)" />
  
  <!-- Anvil and Star Group -->
  <g fill="#ffffff" transform="translate(106, 96) scale(3)">
    <!-- Anvil shape -->
    <path d="M 16,40 L 74,40 L 74,48 C 62,48 55,50 55,56 C 55,62 60,66 68,68 C 72,68 74,70 74,74 L 74,76 L 26,76 L 26,74 C 26,70 28,68 32,68 C 40,66 45,62 45,56 C 45,50 38,48 16,42 Z" />
    <!-- Sparkle / Four-pointed star -->
    <path d="M 52,14 Q 52,22 44,22 Q 52,22 52,30 Q 52,22 60,22 Q 52,22 52,14 Z" />
  </g>
</svg>
